<svg style="filter:grayscale(1) contrast(7) invert(1)" xmlns="http://www.w3.org/2000/svg" xmlns:xlink="http://www.w3.org/1999/xlink" viewBox="0 0 117.29 100.4"><defs><linearGradient id="e6c6c3df-8923-42e3-ab95-79daed35eebb" x1="26.42" y1="86.98" x2="96.8" y2="16.61" gradientTransform="matrix(1, 0, 0, -1, 0, 102.05)" gradientUnits="userSpaceOnUse"><stop offset="0" stop-color="#ffb2c2"></stop><stop offset="1" stop-color="#f85e8a"></stop></linearGradient></defs><title>7608</title><g id="b6e9b9ff-9559-4214-9d12-3846aeb6d13e"><g id="a2376d7d-8080-40b3-b02f-79f1ac3ebec0"><path d="M59.36,47C53.29,48,52.26,57.1,62.74,59.84s26.42.45,26.88-20S53.18,6.3,37.46,30.22,35.11,81.67,59.78,83.76c20.28,1.71,31.44-5.7,36.45-9.11s12.07-.23,2,9.34-44.42,23.93-73-2.4C-1.51,56.93,6,16.22,47.82,6,94.54-5.41,120.47,37.24,101,61.78,83.82,83.42,45.88,70.32,49.07,48.9,52,29.48,72.77,30.22,73.22,40,73.51,46.27,65.28,45.93,59.36,47Z" fill="url(#e6c6c3df-8923-42e3-ab95-79daed35eebb)"></path><path d="M82.61,95.89c-1.52-.45-3.17-.88-4.92-1.34-12.59-3.32-30.38-7.78-41-23.71-7.63-10.68-8.65-26.29.76-40.62,9.15-13.92,25.47-15.34,37.43-10-12.07-7.36-48.28-4.78-52,37.08A37.35,37.35,0,0,0,37.05,90.12C46,97.28,58.76,101.37,74.37,100.2,86.65,99.27,87.29,97.26,82.61,95.89Zm-26.88.3a53,53,0,0,1-5.29-.94A49.47,49.47,0,0,1,45.1,93.7a52.78,52.78,0,0,1-5.37-2.2,52.78,52.78,0,0,0,5.37,2.2,49.47,49.47,0,0,0,5.34,1.55,53,53,0,0,0,5.29.94c1.75.22,3.48.35,5.18.4C59.21,96.54,57.48,96.41,55.73,96.19Z" fill="#3c2299" opacity="0.5" style="isolation:isolate"></path><path d="M104.33,19.67C101.26.1,79.46-3.53,60.13,4.17,40.21,12.11,22.92,32.09,31.48,59c-2-8.92-.36-19.16,6-28.82,15.7-23.9,52.6-10.91,52.14,9.59s-16.4,22.78-26.88,20S53.29,48,59.36,47c5.92-1,14.15-.69,13.86-6.94C72.77,30.22,52,29.48,49.07,48.9a16.63,16.63,0,0,0,2.07,10.87c9.17,15.72,52.85,9,53.92-29.4A59,59,0,0,0,104.33,19.67Z" fill="#ff3e24" opacity="0.5"></path><path d="M32.11,12C18.57,14.12,6.77,19.79,2.27,28.41c-5.45,10.44-.72,24,10.31,35.09S41,83.28,60.8,83.84l-1-.08c-24.67-2.09-38-29.62-22.32-53.54,11.93-18.15,36.07-15,46.81-3.53C73.88,13.37,51.26,9.1,32.11,12Z" fill="#ff0098" opacity="0.6"></path><path d="M103.41,71.35c.83,2.15,15.55-1,13.72-5.83S102.57,69.2,103.41,71.35ZM34.7,8c2.3.17,4.94-7.47-.17-8S32.41,7.76,34.7,8Z" fill="#f757af"></path><path d="M102.45,66c.44,2.55,6-2,4.32-4.06S102.17,64.37,102.45,66ZM9.58,65c-4.35.74-2.11,6.29,1.32,3.5C12.85,66.93,12,64.61,9.58,65Z" fill="#ab8eeb"></path><path d="M31.83,8.61c-.49-2.45-3.14-6.47-6.46-7.09-2.79-.5-7.86,5.32,1.75,8.34C32.63,11.59,32.06,9.79,31.83,8.61Z" fill="#ffbd88"></path></g></g></svg>